<?xml version="1.0" encoding="utf-8"?>
<!-- Generator: Adobe Illustrator 19.0.0, SVG Export Plug-In . SVG Version: 6.00 Build 0)  -->
<svg version="1.1" id="layer" xmlns="http://www.w3.org/2000/svg" xmlns:xlink="http://www.w3.org/1999/xlink" x="0px" y="0px"
	 viewBox="-140 210 620 130" style="enable-background:new -140 210 620 130;" xml:space="preserve">
<style type="text/css">
	.st0{fill:#ED1C24;}
	.st1{fill:#FFFFFF;}
</style>
<rect x="-131.2" y="215.5" class="st0" width="600" height="119"/>
<path class="st1" d="M-107.5,312.1H-56v-10.5h-38.7v-22.2h26.5v-10.6h-26.5v-13l-0.6-6.2h38.8v-10.6h-51.8l0.7,6.5V312.1z
	 M-39.6,312.1l19.8-29.5l19.3,29.5h11.8v-2.5l-22.7-34.1l22.2-33.9v-2.7H0.1l-18.3,28.3l-18.3-28.3h-11.8v2.7L-27,274l-23.7,35.6
	v2.5H-39.6z M138.9,246.2v66h13v-51.1l41.2,51.1h11.3v-73.1h-13v50.4l-40.4-50.4 M17.2,312.3h13v-22h14.4c14.2,0,27.1-8.2,27.1-25.9
	C71.8,248.1,61,239,46,239H16.4l0.8,7.2V312.3L17.2,312.3z M30.3,279.8v-23.1l-0.7-7.1h13.7c9.6,0,15.9,4,15.9,15
	c0,10.2-6.2,15.3-16,15.3L30.3,279.8L30.3,279.8z M116,296l6.5,16.3h11.9v-2.5l-28.9-71.1H93.3l-29.5,71.1v2.5h11.8l6.9-16.3H116
	L116,296z M86.5,285.5l12.9-34l12.6,34H86.5z M151.1,239.2h-13l0.8,7.1 M271.9,312.1h12.7v-73.2h-12.7V312.1z M390.5,312.3v-51.1
	l41.2,51.1H443v-73.1h-13v50.4l-40.4-50.4h-13l0.8,7.1v66H390.5L390.5,312.3z M238.1,237.5c-15.4,0-26.6,7.5-26.6,20.7
	c0,13.5,15,18.8,23.5,22.2c8.4,3.3,15.2,5.7,15.2,11.2c0,6.7-5.8,10.8-13.9,10.8c-7.1,0-14.2-3.1-19.4-6.8h-4l-1.3,9.2
	c5.9,4.8,15.7,8.4,24.8,8.4c15.2,0,26.9-8.5,26.9-22.1c0-12.3-12.2-16.9-20.5-20.3c-9.2-3.7-18.4-6.7-18.4-13.3
	c0-5.7,5.2-8.8,13.9-8.8c5.5,0,11.9,2,15,4.4h4.1l1.3-9.9C254.4,240.4,247,237.5,238.1,237.5 M331.1,237.9c-22,0-39,16.4-39,37.7
	c0,21.4,16.6,37.8,39,37.8c22.1,0,39-16.4,39-37.8C369.9,254,353.1,237.9,331.1,237.9z M331.1,303.2c-14.7,0-26.2-11.6-26.2-27.6
	c0-16,10.8-26.6,25.8-26.6c14.6,0,26.5,10.8,26.5,26.6C357,292.6,344.9,303.2,331.1,303.2z"/>
<polygon points="360.2,238.9 335.8,263.2 351.1,263.2 375.5,238.9 "/>
</svg>
